<svg xmlns="http://www.w3.org/2000/svg" xmlns:xlink="http://www.w3.org/1999/xlink" width="1000" zoomAndPan="magnify" viewBox="0 0 750 749.999995" height="1000" preserveAspectRatio="xMidYMid meet" version="1.0"><defs><clipPath id="ed3deb20d8"><path d="M 44.734375 45.875 L 702.980469 45.875 L 702.980469 704.125 L 44.734375 704.125 Z M 44.734375 45.875 " clip-rule="nonzero"/></clipPath><clipPath id="4edd6c9f19"><path d="M 373.859375 45.875 C 192.085938 45.875 44.734375 193.230469 44.734375 375 C 44.734375 556.769531 192.085938 704.125 373.859375 704.125 C 555.628906 704.125 702.980469 556.769531 702.980469 375 C 702.980469 193.230469 555.628906 45.875 373.859375 45.875 Z M 373.859375 45.875 " clip-rule="nonzero"/></clipPath><clipPath id="d5e72cef48"><path d="M 0.734375 0.875 L 658.980469 0.875 L 658.980469 659.125 L 0.734375 659.125 Z M 0.734375 0.875 " clip-rule="nonzero"/></clipPath><clipPath id="27bbf71a4f"><path d="M 329.859375 0.875 C 148.085938 0.875 0.734375 148.230469 0.734375 330 C 0.734375 511.769531 148.085938 659.125 329.859375 659.125 C 511.628906 659.125 658.980469 511.769531 658.980469 330 C 658.980469 148.230469 511.628906 0.875 329.859375 0.875 Z M 329.859375 0.875 " clip-rule="nonzero"/></clipPath><clipPath id="5fac379f35"><rect x="0" width="659" y="0" height="660"/></clipPath></defs><g clip-path="url(#ed3deb20d8)"><g clip-path="url(#4edd6c9f19)"><g transform="matrix(1, 0, 0, 1, 44, 45)"><g clip-path="url(#5fac379f35)"><g clip-path="url(#d5e72cef48)"><g clip-path="url(#27bbf71a4f)"><path fill="#3a2d23" d="M 0.734375 0.875 L 658.980469 0.875 L 658.980469 659.125 L 0.734375 659.125 Z M 0.734375 0.875 " fill-opacity="1" fill-rule="nonzero"/></g></g></g></g></g></g><path fill="#f8f6f4" d="M 316.097656 182.628906 C 331.355469 194.613281 350.421875 225.671875 342.25 225.671875 C 339.527344 225.671875 332.988281 220.765625 327.539062 214.773438 C 311.742188 196.792969 270.332031 175.546875 260.527344 179.359375 C 252.898438 182.082031 255.078125 184.808594 270.332031 192.980469 C 280.683594 198.429688 298.121094 210.414062 308.472656 220.222656 L 327.539062 236.566406 L 305.746094 227.851562 C 277.417969 215.863281 215.851562 198.429688 203.320312 198.429688 C 186.429688 198.429688 198.414062 207.691406 219.664062 212.050781 C 245.269531 216.410156 339.527344 245.285156 355.871094 254 C 373.308594 262.71875 376.574219 256.179688 368.402344 231.117188 C 360.230469 205.511719 327.539062 171.1875 312.285156 171.1875 C 303.023438 171.1875 303.023438 172.277344 316.097656 182.628906 Z M 316.097656 182.628906 " fill-opacity="1" fill-rule="nonzero"/><path fill="#f8f6f4" d="M 419.074219 186.441406 C 401.09375 202.789062 388.5625 225.125 382.570312 249.097656 C 378.753906 264.355469 379.300781 264.355469 394.011719 256.726562 C 413.078125 246.917969 507.878906 217.496094 548.199219 208.78125 C 571.082031 203.878906 575.441406 201.152344 567.269531 198.429688 C 555.28125 194.070312 496.984375 209.324219 456.121094 226.761719 L 431.605469 237.113281 L 441.957031 225.125 C 447.949219 219.132812 463.203125 207.691406 476.28125 200.0625 C 492.082031 190.800781 498.074219 184.261719 494.261719 180.449219 C 488.8125 175 456.667969 191.890625 423.429688 218.585938 L 404.90625 233.84375 L 413.625 216.953125 C 418.527344 207.144531 429.96875 193.523438 439.230469 185.351562 C 453.941406 173.367188 455.03125 171.1875 445.769531 171.1875 C 439.777344 171.1875 427.789062 177.726562 419.074219 186.441406 Z M 419.074219 186.441406 " fill-opacity="1" fill-rule="nonzero"/><path fill="#f8f6f4" d="M 150.46875 371.6875 L 150.46875 519.335938 L 171.171875 522.605469 C 182.070312 524.785156 198.960938 527.507812 207.675781 528.597656 C 224.566406 531.867188 310.652344 555.296875 326.996094 561.289062 C 335.167969 564.558594 335.714844 552.570312 334.625 415.816406 L 332.988281 267.621094 L 273.058594 249.097656 C 240.367188 238.746094 198.960938 229.484375 182.070312 227.304688 L 150.46875 224.035156 Z M 150.46875 371.6875 " fill-opacity="1" fill-rule="nonzero"/><path fill="#f8f6f4" d="M 545.472656 231.664062 C 533.488281 233.84375 501.886719 243.105469 474.644531 251.277344 L 425.609375 267.078125 L 423.976562 415.816406 C 422.886719 555.296875 423.429688 564.011719 432.148438 561.289062 C 490.445312 543.855469 543.296875 530.234375 561.273438 527.507812 C 573.804688 525.875 589.0625 523.695312 596.144531 522.058594 L 608.128906 519.878906 L 608.128906 225.671875 L 587.972656 226.214844 C 576.53125 226.761719 557.460938 228.941406 545.472656 231.664062 Z M 545.472656 231.664062 " fill-opacity="1" fill-rule="nonzero"/><path fill="#f8f6f4" d="M 357.507812 378.769531 L 357.507812 476.292969 L 401.09375 476.292969 L 401.09375 280.699219 L 379.300781 281.242188 L 357.507812 281.242188 Z M 357.507812 378.769531 " fill-opacity="1" fill-rule="nonzero"/><path fill="#f8f6f4" d="M 357.507812 503.535156 C 357.507812 506.261719 367.3125 508.984375 379.300781 508.984375 C 391.285156 508.984375 401.09375 506.261719 401.09375 503.535156 C 401.09375 500.265625 391.285156 498.085938 379.300781 498.085938 C 367.3125 498.085938 357.507812 500.265625 357.507812 503.535156 Z M 357.507812 503.535156 " fill-opacity="1" fill-rule="nonzero"/><path fill="#f8f6f4" d="M 358.597656 553.117188 C 361.867188 596.703125 396.734375 596.703125 400.003906 553.117188 L 401.636719 530.777344 L 356.960938 530.777344 Z M 358.597656 553.117188 " fill-opacity="1" fill-rule="nonzero"/></svg>